<?xml version="1.0" encoding="UTF-8" standalone="no"?>
<!DOCTYPE svg PUBLIC "-//W3C//DTD SVG 1.1//EN" "http://www.w3.org/Graphics/SVG/1.1/DTD/svg11.dtd">
<svg width="100%" height="100%" viewBox="0 0 504 504" version="1.1" xmlns="http://www.w3.org/2000/svg" xmlns:xlink="http://www.w3.org/1999/xlink" xml:space="preserve" xmlns:serif="http://www.serif.com/" style="fill-rule:evenodd;clip-rule:evenodd;stroke-linejoin:round;stroke-miterlimit:2;">
    <g transform="matrix(1,0,0,1,-311,-288)">
        <g>
            <g transform="matrix(0.752239,0,0,0.636364,91.346269,104.727273)">
                <path d="M962,367.2L962,1000.8C962,1044.512 931.978,1080 895,1080L359,1080C322.022,1080 292,1044.512 292,1000.8L292,367.2C292,323.488 322.022,288 359,288L895,288C931.978,288 962,323.488 962,367.2Z" style="fill:white;"/>
            </g>
            <g transform="matrix(0.86569,0,0,0.86569,98.527048,72.527338)">
                <g transform="matrix(1.360399,0,0,1.360399,643.258896,510.936624)">
                    <path d="M0,-1.704L0,4.303C5.776,-3.379 1.213,-6.007 1.213,-6.007C2.888,-3.148 0,-1.704 0,-1.704" style="fill:rgb(44,41,42);fill-rule:nonzero;"/>
                </g>
                <g transform="matrix(1.360399,0,0,1.360399,614.851452,491.919062)">
                    <path d="M0,7.943C-0.434,4.824 3.35,2.773 3.35,2.773C4.939,0.954 13.834,2.918 14.614,3.091C11.783,-0.144 5.314,0.029 5.314,0.029C-1.675,0.983 -2.629,6.21 -2.629,6.21C-3.351,8.087 0,7.943 0,7.943" style="fill:rgb(44,41,42);fill-rule:nonzero;"/>
                </g>
                <g transform="matrix(0.754575,1.131946,1.131946,-0.754575,567.373327,523.434661)">
                    <path d="M8.207,-3.723C8.207,-3.723 19.292,9.576 20.39,16.271C20.39,16.271 13.34,18.715 8.207,12.94C8.207,12.94 -3.681,2.709 -0.589,-7.753C-0.589,-7.753 5.932,-7.135 8.207,-3.723" style="fill:rgb(44,41,42);fill-rule:nonzero;"/>
                </g>
                <g transform="matrix(1.360399,0,0,1.360399,512.457621,486.040914)">
                    <path d="M0,80.061C1.906,62.761 13.603,54.327 14.325,53.807C0.231,75.093 2.975,86.242 2.975,86.242C0,83.527 0,80.061 0,80.061M-11.004,54.009C-11.004,48.666 -18.484,49.475 -18.484,49.475C-20.882,55.887 -17.936,69.779 -17.936,69.779C-21.951,66.313 -24.608,46.818 -24.608,46.818C-27.178,47.309 -25.041,55.222 -24.896,55.858C-38.5,44.392 -38.76,17.994 -38.76,17.994C-39.828,-2.542 -17.127,-12.997 -17.127,-12.997C12.766,-13.257 25.041,-16.723 25.041,-16.723C33.59,-19.12 40.781,-14.066 40.781,-14.066C45.316,-7.105 39.51,-4.448 39.51,-4.448C33.59,-10.051 21.575,-6.845 21.575,-6.845C31.452,-7.914 39.51,0.895 39.51,0.895C39.51,6.239 19.177,5.69 19.177,5.69C-14.73,7.827 -23.279,24.117 -23.279,24.117C-26.225,32.926 -20.333,36.998 -20.333,36.998C-20.333,33.561 -9.387,20.651 -9.387,20.651C6.614,7.827 27.727,16.376 27.727,16.376C-5.632,13.43 -14.21,31.539 -14.21,31.539C-15.538,40.551 -10.744,40.666 -10.744,40.666C-8.607,34.514 -4.535,30.442 0.087,27.756C1.271,37.287 10.08,32.665 10.08,32.665C12.852,28.853 11.004,25.734 9.387,24.059C17.011,22.124 23.712,22.615 23.712,22.615C16.492,28.304 19.438,45.749 19.438,45.749C-4.592,58.284 -11.004,77.259 -11.004,77.259C-13.661,72.696 -11.004,54.009 -11.004,54.009M-43.67,-38.904C-36.68,-47.338 -15.74,-48.955 -15.74,-48.955C-15.538,-57.995 -28.073,-73.591 -28.073,-73.591C-15.134,-71.541 0,-46.096 0,-46.096L0,-36.594C-0.606,-41.475 -8.983,-46.009 -11.149,-47.078C-7.654,-45.056 -8.983,-38.095 -8.983,-38.095C-13.69,-42.399 -19.842,-36.651 -19.842,-36.651C-15.538,-36.854 -11.235,-32.55 -11.235,-32.55C-23.539,-35.207 -43.67,-15.163 -43.67,-15.163C-44.074,-23.192 -21.835,-39.944 -21.835,-39.944C-24.839,-43.439 -43.67,-38.904 -43.67,-38.904M-63.974,91.527C-63.974,91.527 -90.256,76.855 -88.206,47.713C-88.206,47.713 -84.306,20.622 -68.71,33.33C-68.71,33.33 -65.216,35.583 -68.913,40.522C-68.913,40.522 -66.227,50.168 -62.76,51.381C-62.76,51.381 -71.772,50.572 -75.873,44.825C-75.873,44.825 -86.155,40.522 -82.862,58.977C-82.862,58.977 -77.722,77.057 -65.62,80.321C-65.62,80.321 -63.974,79.714 -67.064,76.624C-67.064,76.624 -79.974,65.562 -76.306,52.219C-76.306,52.219 -59.872,83.325 -46.731,86.242C-46.731,86.242 -47.973,97.795 -63.974,91.527M45.865,-24.463C53.865,-27.669 73.909,-50.341 73.909,-50.341C84.855,-57.562 99.066,-50.341 99.066,-50.341C118.127,-39.395 119.023,-9.502 119.023,-9.502C119.542,19.322 107.528,22.615 107.528,22.615C108.596,20.304 108.076,12.275 108.076,12.275C107.268,-7.307 81.216,-4.448 81.216,-4.448C81.707,-8.809 101.925,-9.242 101.925,-9.242C107.268,-7.365 109.001,-10.051 109.001,-10.051C111.542,-18.311 94.993,-18.6 94.993,-18.6C82.978,-18.051 63.483,-2.022 63.483,-2.022C60.277,-1.242 57.88,-2.022 57.88,-2.022C57.88,-6.036 80.552,-18.08 80.552,-18.08C93.087,-26.889 102.993,-24.203 102.993,-24.203C112.611,-24.463 107.817,-27.669 107.817,-27.669C89.65,-34.081 57.62,-9.502 57.62,-9.502C54.154,-5.516 52.536,-8.434 52.536,-8.434C52.536,-15.914 69.635,-24.463 69.635,-24.463C53.345,-22.846 49.417,-10.051 49.417,-10.051C46.529,-9.502 43.987,-15.163 43.987,-15.163C40.002,-20.246 45.865,-24.463 45.865,-24.463M133.031,136.872C139.5,127.63 133.031,110.185 133.031,110.185C140.858,114.777 143.399,132.049 143.399,132.049C142.475,136.641 133.031,136.872 133.031,136.872M128.872,97.535C134.07,72.061 125.637,62.761 125.637,62.761C126.301,66.082 120.12,72.696 120.12,72.696C121.68,67.613 114.835,62.992 114.835,62.992C96.639,60.335 74.689,71.83 74.689,71.83C67.873,73.129 69.172,83.065 69.172,83.065C65.649,80.639 66.862,75.671 66.862,75.671C54.125,86.011 58.111,113.824 58.111,113.824C54.125,111.051 49.417,104.697 49.417,104.697C42.312,97.535 47.366,81.621 47.366,81.621C68.826,56.176 124.077,50.226 124.077,50.226C141.984,50.63 142.389,70.01 142.389,70.01C141.089,86.3 128.872,97.535 128.872,97.535M131.211,136.641C129.507,138.345 126.214,139.24 125.724,139.356C131.153,136.554 124.077,123.528 124.077,123.528C132.337,131.356 131.211,136.641 131.211,136.641M97.015,156.512C96.755,156.858 96.437,157.032 95.975,156.974C95.975,156.974 96.379,156.801 97.015,156.512C98.286,154.837 97.621,149.118 97.621,149.118C104.062,149.118 114.402,136.872 114.402,136.872C119.225,132.771 121.651,139.385 121.651,139.385C115.268,147.905 100.943,154.75 97.015,156.512M67.209,119.687C62.356,110.185 69.635,101.578 69.635,101.578C81.158,89.361 91.469,105.795 91.469,105.795C91.469,98.055 88.581,94.531 88.581,94.531C88.379,83.498 104.033,84.076 104.033,84.076C113.737,83.094 115.932,106.228 115.932,106.228C120.351,127.832 110.416,132.915 110.416,132.915C101.376,147.472 95.224,143.948 95.224,143.948C79.108,138.431 67.209,119.687 67.209,119.687M52.507,123.528C43.497,116.828 44.219,106.546 44.363,105.16C44.363,110.185 60.046,126.474 60.046,126.474C57.042,127.976 52.507,123.528 52.507,123.528M45.605,126.792C48.088,130.402 52.161,129.796 52.161,129.796C51.814,136.063 57.331,140.973 57.331,140.973C49.186,140.367 45.605,126.792 45.605,126.792M178.404,184.441C169.537,187.329 157.898,186.867 148.165,185.567C147.645,185.856 147.096,186.145 146.518,186.433C141.464,185.336 135.948,183.747 132.655,181.437C127.485,183.863 121.42,186.289 114.257,188.629C114.257,188.629 93.549,198.506 77.346,196.051C77.346,196.051 61.605,192.903 53.519,180.744C53.519,180.744 28.998,140.713 22.47,104.957C22.47,104.957 19.611,75.815 23.25,68.71C22.008,70.645 11.928,86.704 12.362,97.072C12.362,97.072 10.571,80.87 14.383,64.465C14.383,64.465 19.784,47.598 28.766,50.284C28.766,50.284 34.63,53.894 39.337,52.536C39.337,52.536 39.8,48.493 35.063,48.262C35.063,48.262 21.719,43.323 27.727,30.269C27.727,30.269 36.189,10.253 62.963,14.528C62.963,14.528 67.699,-2.34 80.725,-0.087C80.725,-0.087 91.758,-0.087 94.675,3.957C94.675,3.957 103.889,10.917 101.867,23.077L102.098,28.478C102.098,28.478 136.785,29.922 156.541,57.88C156.945,61.143 157.089,63.338 157.089,63.338C157.032,63.223 156.945,63.107 156.887,63.021C158.735,68.797 160.411,75.844 161.104,83.96C161.104,83.96 160.006,82.14 158.303,79.657C154.692,68.479 147.414,52.71 134.561,47.8C134.561,47.8 128.352,44.536 119.023,45.46C91.614,48.233 39.51,63.743 33.503,89.967C33.503,89.967 31.626,136.15 46.5,157.551C46.5,157.551 63.858,186.982 81.216,185.134C81.216,185.134 92.711,185.134 105.101,174.592C105.101,174.592 122.142,162.808 133.608,162.49C133.608,162.49 150.042,161.277 154.374,147.616C154.374,147.616 159.025,130.893 146.316,146.692C146.316,146.692 139.5,153.508 127.11,154.143C127.11,154.143 119.658,151.977 95.484,171.184C95.484,171.184 80.292,180.484 72.552,176.151C72.552,176.151 67.468,169.711 67.468,165.667C67.468,165.667 67.237,160.728 64.089,160.728C64.089,160.728 60.277,156.916 66.111,152.844C66.111,152.844 70.703,154.894 74.458,147.674C73.158,142.475 72.263,135.948 74.545,131.673C74.545,131.673 78.039,149.522 88.119,154.288C91.267,153.739 96.986,153.421 90.863,160.064C90.863,160.064 83.874,161.855 78.704,161.393C78.704,161.393 73.534,167.256 82.545,168.382C82.545,168.382 91.296,165.898 101.203,159.371C101.203,159.371 116.048,146.778 121.68,146.778C121.68,146.778 131.558,144.988 136.727,146.114L145.046,136.67C145.046,136.67 147.529,128.121 153.594,133.291C153.594,133.291 156.108,134.475 158.505,137.161C158.735,136.005 158.909,134.735 158.996,133.406C159.544,134.301 160.006,135.428 160.382,136.843C160.353,136.41 160.266,135.948 160.093,135.486C161.393,137.652 166.014,145.768 165.465,156.945C165.465,156.945 167.487,148.136 167.227,139.298L167.227,139.269C169.74,127.89 167.603,96.813 166.996,88.581C166.852,92.509 164.396,97.419 164.396,97.419C165.003,87.166 162.201,71.685 162.201,71.685C164.396,60.508 160.988,27.958 160.988,27.958C160.988,17.734 146.085,-3.639 146.085,-3.639C141.146,-12.015 136.496,-22.557 136.496,-22.557C110.445,-80.205 82.227,-77.433 82.227,-77.433C82.545,-80.523 90.921,-82.689 90.921,-82.689C79.743,-87.975 55.28,-85.808 55.28,-85.808C51.843,-93.231 55.28,-99.441 55.28,-99.441C53.085,-102.849 41.937,-101.289 41.937,-101.289C43.179,-105.015 38.846,-110.907 38.846,-110.907L27.062,-112.149C6.903,-136.641 -18.196,-136.323 -18.196,-136.323C-26.889,-140.049 -34.023,-137.883 -34.023,-137.883C-93.52,-148.425 -115.932,-108.481 -115.932,-108.481C-114.257,-109.03 -110.127,-110.936 -106.459,-112.669C-108.943,-108.683 -110.387,-105.304 -110.56,-104.9C-106.661,-107.73 -100.798,-110.012 -95.657,-111.629C-103.484,-107.672 -112.178,-101.722 -120.005,-92.856C-119.398,-93.173 -109.694,-98.372 -104.611,-98.372C-104.611,-98.372 -135.139,-65.071 -137.912,-51.525C-137.912,-51.525 -130.836,-58.284 -124.366,-57.677C-124.366,-57.677 -137.305,-28.391 -134.85,-4.968C-134.85,-4.968 -133.608,-12.968 -128.351,-14.21C-128.351,-14.21 -132.077,15.394 -125.897,27.409C-125.897,27.409 -126.214,18.167 -123.731,17.243C-123.731,17.243 -116.857,62.53 -95.484,88.292C-93.665,93.029 -91.787,100.481 -91.354,111.571C-91.354,111.571 -87.859,103.051 -89.708,99.73C-88.697,101.491 -79.512,117.954 -82.169,135.948C-82.169,135.948 -76.942,133.435 -74.776,129.507C-73.418,139.442 -71.541,148.685 -68.999,152.497C-68.999,152.497 -69.201,139.385 -66.053,138.027C-66.053,138.027 -60.219,162.461 -48.204,170.144C-48.204,170.144 -29.402,188.224 -28.969,200.903C-28.969,200.903 -23.972,182.794 -28.969,175.574C-28.969,175.574 7.48,214.016 28.391,218.983C28.391,218.983 14.47,211.734 12.881,197.264C12.881,197.264 46.125,218.983 61.49,218.983C61.49,218.983 44.421,208.297 44.132,198.939C44.132,198.939 89.621,228.486 122.604,213.554C122.604,213.554 107.066,214.247 97.997,212.889C96.668,212.716 95.484,212.485 94.502,212.196C94.502,212.196 94.877,212.167 95.599,212.081L95.628,212.081C104.235,211.185 159.458,205.12 162.808,196.369C162.808,196.369 161.162,196.542 158.851,196.571C168.325,191.835 177.682,184.989 178.404,184.441" style="fill:rgb(44,41,42);fill-rule:nonzero;"/>
                </g>
                <g transform="matrix(-0.810323,1.092731,1.092731,0.810323,565.581041,536.807881)">
                    <path d="M3.334,-8.639C3.334,-8.639 8.014,-7.29 6.861,-1.709L3.334,3.047C3.334,3.047 6.367,-2.255 4.935,-3.137C3.503,-4.019 5.554,-3.973 3.334,-8.639" style="fill:rgb(44,41,42);fill-rule:nonzero;"/>
                </g>
                <g transform="matrix(0.881914,-1.035816,-1.035816,-0.881914,632.196776,510.957949)">
                    <path d="M-5.774,-2.015C-1.025,-3.852 7.132,3.587 7.132,3.587C2.812,8.973 -5.774,11.261 -5.774,11.261C-10.585,12.589 -15.248,9.112 -15.248,9.112C-11.469,-0.227 -5.774,-2.015 -5.774,-2.015" style="fill:rgb(44,41,42);fill-rule:nonzero;"/>
                </g>
            </g>
        </g>
    </g>
</svg>
