<?xml version="1.0" encoding="UTF-8" standalone="no"?>
<!DOCTYPE svg PUBLIC "-//W3C//DTD SVG 1.1//EN" "http://www.w3.org/Graphics/SVG/1.1/DTD/svg11.dtd">
<svg width="100%" height="100%" viewBox="0 0 925 297" version="1.1" xmlns="http://www.w3.org/2000/svg" xmlns:xlink="http://www.w3.org/1999/xlink" xml:space="preserve" xmlns:serif="http://www.serif.com/" style="fill-rule:evenodd;clip-rule:evenodd;stroke-linejoin:round;stroke-miterlimit:2;">
    <g transform="matrix(1,0,0,1,-56.678516,-177.622083)">
        <g>
            <g transform="matrix(2.480992,0,0,2.480992,-769.56609,-1525.960126)">
                <g transform="matrix(1,0,0,1,407.88192,782.6408)">
                    <path d="M0,2.821C-0.337,2.879 -0.587,2.946 -0.587,2.946C-1.791,2.946 -2.907,1.146 -2.907,1.146C-2.907,-0.876 -3.735,-1.627 -3.735,-1.627C-3.976,-0.674 -4.255,0.058 -4.554,0.616C-4.169,2.137 -3.668,3.302 -3.668,3.302C-2.609,4.448 0.116,2.879 0.116,2.879C0.077,2.859 0.039,2.84 0,2.821" style="fill:rgb(241,242,242);fill-rule:nonzero;"/>
                </g>
                <g transform="matrix(1,0,0,1,391.67932,754.8944)">
                    <path d="M0,-22.344C-1.974,-24.212 -5.978,-23.143 -5.978,-23.143C-2.686,-23.499 0,-20.563 0,-20.563C0,-18.782 -6.778,-18.965 -6.778,-18.965C-18.08,-18.252 -20.93,-12.823 -20.93,-12.823C-21.912,-9.886 -19.948,-8.529 -19.948,-8.529C-19.948,-9.675 -16.299,-13.978 -16.299,-13.978C-10.965,-18.252 -3.928,-15.403 -3.928,-15.403C-15.047,-16.385 -17.907,-10.348 -17.907,-10.348C-18.35,-7.345 -16.751,-7.306 -16.751,-7.306C-16.039,-9.357 -14.682,-10.714 -13.141,-11.61C-12.746,-8.433 -9.81,-9.973 -9.81,-9.973C-8.886,-11.244 -9.502,-12.283 -10.041,-12.842C-7.5,-13.487 -5.266,-13.323 -5.266,-13.323C-7.673,-11.427 -6.691,-5.612 -6.691,-5.612C-14.701,-1.434 -16.838,4.891 -16.838,4.891C-17.724,3.37 -16.838,-2.858 -16.838,-2.858C-16.838,-4.639 -19.332,-4.37 -19.332,-4.37C-20.131,-2.233 -19.149,2.398 -19.149,2.398C-20.487,1.243 -21.372,-5.256 -21.372,-5.256C-22.229,-5.092 -21.517,-2.454 -21.469,-2.242C-26.003,-6.064 -26.09,-14.864 -26.09,-14.864C-26.446,-21.709 -18.879,-25.194 -18.879,-25.194C-8.915,-25.28 -4.823,-26.436 -4.823,-26.436C-1.974,-27.235 0.424,-25.55 0.424,-25.55C1.935,-23.23 0,-22.344 0,-22.344" style="fill:rgb(241,242,242);fill-rule:nonzero;"/>
                </g>
                <g transform="matrix(1,0,0,1,418.18312,725.5507)">
                    <path d="M0,5.315C0.173,14.923 -3.832,16.02 -3.832,16.02C-3.476,15.25 -3.649,12.574 -3.649,12.574C-3.918,6.047 -12.602,7 -12.602,7C-12.438,5.546 -5.699,5.402 -5.699,5.402C-3.918,6.027 -3.341,5.132 -3.341,5.132C-2.494,2.379 -8.01,2.282 -8.01,2.282C-12.015,2.465 -18.513,7.808 -18.513,7.808C-19.582,8.068 -20.381,7.808 -20.381,7.808C-20.381,6.47 -12.824,2.456 -12.824,2.456C-8.645,-0.481 -5.343,0.415 -5.343,0.415C-2.137,0.328 -3.735,-0.741 -3.735,-0.741C-9.791,-2.878 -20.468,5.315 -20.468,5.315C-21.623,6.644 -22.162,5.671 -22.162,5.671C-22.162,3.178 -16.463,0.328 -16.463,0.328C-21.892,0.867 -23.202,5.132 -23.202,5.132C-24.164,5.315 -25.012,3.428 -25.012,3.428C-26.34,1.734 -24.386,0.328 -24.386,0.328C-21.719,-0.741 -15.038,-8.298 -15.038,-8.298C-11.389,-10.705 -6.652,-8.298 -6.652,-8.298C-0.299,-4.649 0,5.315 0,5.315" style="fill:rgb(241,242,242);fill-rule:nonzero;"/>
                </g>
                <g transform="matrix(1,0,0,1,379.50082,751.969)">
                    <path d="M0,10.811C-0.992,9.906 -0.992,8.751 -0.992,8.751C-0.356,2.984 3.543,0.173 3.784,0C-0.915,7.095 0,10.811 0,10.811" style="fill:rgb(241,242,242);fill-rule:nonzero;"/>
                </g>
                <g transform="matrix(1,0,0,1,421.46202,756.2108)">
                    <path d="M0,10.335C0,10.335 4.079,6.591 4.505,1.161C4.505,1.161 4.373,-5.3 -1.59,-5.433C-1.59,-5.433 -20.008,-3.445 -27.163,5.035C-27.163,5.035 -28.853,10.335 -26.484,12.72C-26.484,12.72 -24.911,14.84 -23.586,15.768C-23.586,15.768 -24.911,6.492 -20.67,3.047C-20.67,3.047 -21.068,4.705 -19.891,5.513C-19.891,5.513 -20.332,2.205 -18.053,1.764C-18.053,1.764 -10.739,-2.059 -4.673,-1.177C-4.673,-1.177 -2.394,0.367 -2.909,2.058C-2.909,2.058 -0.851,-0.147 -1.071,-1.25C-1.071,-1.25 1.733,1.85 0,10.335" style="fill:rgb(241,242,242);fill-rule:nonzero;"/>
                </g>
                <g transform="matrix(1,0,0,1,408.99582,775.6295)">
                    <path d="M0,-6.333C0,-6.333 -3.437,-11.809 -7.278,-7.73C-7.278,-7.73 -9.704,-4.863 -8.087,-1.701C-8.087,-1.701 -4.117,4.547 1.25,6.385C1.25,6.385 3.308,7.562 6.322,2.71C6.322,2.71 9.631,1.019 8.16,-6.186C8.16,-6.186 7.425,-13.895 4.19,-13.569C4.19,-13.569 -1.029,-13.758 -0.956,-10.082C-0.956,-10.082 0,-8.906 0,-6.333" style="fill:rgb(241,242,242);fill-rule:nonzero;"/>
                </g>
                <g transform="matrix(1,0,0,1,422.85582,770.7625)">
                    <path d="M0,8.896C0,8.896 3.144,8.819 3.451,7.286C3.451,7.286 2.607,1.534 0,0C0,0 2.155,5.82 0,8.896" style="fill:rgb(241,242,242);fill-rule:nonzero;"/>
                </g>
                <g transform="matrix(1,0,0,1,407.99742,779.4926)">
                    <path d="M0,6.027C0,6.027 -2.724,7.596 -3.783,6.451C-3.783,6.451 -4.284,5.286 -4.669,3.765C-5.102,2.032 -5.401,-0.144 -4.64,-1.569C-4.64,-1.569 -3.475,4.381 -0.116,5.969C-0.077,5.988 -0.039,6.008 0,6.027" style="fill:rgb(241,242,242);fill-rule:nonzero;"/>
                </g>
                <g transform="matrix(1,0,0,1,419.86492,780.5025)">
                    <path d="M0,-5.292C0,-5.292 2.377,-0.921 0.537,0C0.537,0 1.764,-0.307 2.377,-0.921C2.377,-0.921 2.761,-2.685 0,-5.292" style="fill:rgb(241,242,242);fill-rule:nonzero;"/>
                </g>
                <g transform="matrix(-0.374859,-0.927082,-0.927082,0.374859,411.42099,779.142089)">
                    <path d="M-4.124,-6.572C-4.124,-6.572 -1.775,-6.654 -2.436,-4.649C-2.436,-4.649 -4.931,0.075 -4.124,2.071C-4.124,2.071 -6.808,2.798 -6.347,3.556C-6.347,3.556 -6.252,-3.042 -4.124,-6.572" style="fill:rgb(241,242,242);fill-rule:nonzero;"/>
                </g>
                <g transform="matrix(1,0,0,1,393.29192,776.6961)">
                    <path d="M0,-7.65C0,-7.65 -0.503,-3.877 2.718,-1.486C2.718,-1.486 4.228,0 5.234,-0.503C5.234,-0.503 -0.101,-6.04 0,-7.65" style="fill:rgb(241,242,242);fill-rule:nonzero;"/>
                </g>
                <g transform="matrix(1,0,0,1,393.71492,781.0238)">
                    <path d="M0,-4.727C0,-4.727 1.188,-0.201 3.905,0C3.905,0 2.065,-1.634 2.18,-3.724C2.18,-3.724 0.826,-3.516 0,-4.727" style="fill:rgb(241,242,242);fill-rule:nonzero;"/>
                </g>
                <g transform="matrix(1,0,0,1,362.93222,744.758)">
                    <path d="M0,18.022C0,18.022 -0.414,21.873 -5.747,19.784C-5.747,19.784 -14.508,14.893 -13.825,5.179C-13.825,5.179 -12.525,-3.851 -7.326,0.385C-7.326,0.385 -6.161,1.136 -7.394,2.782C-7.394,2.782 -6.498,5.998 -5.343,6.402C-5.343,6.402 -8.347,6.132 -9.714,4.217C-9.714,4.217 -13.141,2.782 -12.044,8.934C-12.044,8.934 -10.33,14.96 -6.296,16.048C-6.296,16.048 -5.747,15.846 -6.777,14.816C-6.777,14.816 -11.081,11.129 -9.858,6.681C-9.858,6.681 -4.38,17.05 0,18.022" style="fill:rgb(241,242,242);fill-rule:nonzero;"/>
                </g>
                <g transform="matrix(1,0,0,1,378.50922,719.814)">
                    <path d="M0,-1.146L0,2.021C-0.202,0.394 -2.994,-1.117 -3.716,-1.473C-2.551,-0.799 -2.994,1.521 -2.994,1.521C-4.563,0.086 -6.614,2.002 -6.614,2.002C-5.179,1.935 -3.745,3.369 -3.745,3.369C-7.846,2.483 -14.556,9.165 -14.556,9.165C-14.691,6.488 -7.278,0.905 -7.278,0.905C-8.279,-0.26 -14.556,1.251 -14.556,1.251C-12.227,-1.56 -5.247,-2.099 -5.247,-2.099C-5.179,-5.112 -9.358,-10.311 -9.358,-10.311C-5.045,-9.628 0,-1.146 0,-1.146" style="fill:rgb(241,242,242);fill-rule:nonzero;"/>
                </g>
                <g transform="matrix(1,0,0,1,427.51192,695.1192)">
                    <path d="M0,102.858C-0.106,102.877 -0.221,102.896 -0.337,102.925C-4.592,103.744 -10.705,104.369 -10.705,104.369C-7.211,105.043 -3.533,105.072 -1.117,104.966C-4.371,106.122 -12.583,108.528 -21.478,107.267C-21.478,107.267 -17.781,109.828 -15.259,110.107C-16.232,110.04 -24.309,109.212 -34.899,101.347C-34.899,101.347 -35.399,105.592 -34.677,106.603C-34.677,106.603 -46.721,100.528 -49.195,95.83C-49.06,96.283 -46.875,103.455 -45.527,105.246C-45.951,104.909 -59.4,94.155 -60.603,91.238C-60.603,91.238 -59.602,95.926 -59.718,96.263C-59.718,96.263 -62.616,89.438 -64.907,87.878C-64.907,87.878 -68.488,82.564 -68.431,79.435C-68.431,79.435 -69.817,82.217 -69.229,83.536C-69.499,83.257 -73.831,78.761 -74.448,70.039C-74.448,70.039 -74.255,74.15 -73.764,78.588C-74.707,76.268 -76.325,71.897 -76.325,69.423C-76.325,69.423 -76.893,70.645 -76.825,72.07C-76.825,72.07 -80.773,63.521 -80.647,59.574C-80.715,60.546 -80.801,62.674 -80.513,65.052C-80.57,64.927 -80.619,64.801 -80.676,64.667C-83.468,57.851 -87.723,45.075 -85.134,35.506C-85.134,35.506 -88.32,38.182 -88.214,41.879C-88.214,41.879 -89.447,32.319 -86.78,28.314C-86.78,28.314 -88.773,29.219 -89.187,31.106C-88.956,29.469 -87.858,23.154 -84.835,20.92C-85.057,21.036 -88.542,23.038 -89.244,25.128C-89.244,25.128 -89.755,18.87 -82.38,12.295C-82.727,12.487 -88.282,15.587 -89.129,17.185C-88.956,16.607 -86,7.163 -72.387,-1.694C-72.387,-1.694 -73.957,-1.54 -76.306,-0.799C-74.168,-3.051 -70.577,-3.658 -70.577,-3.658C-72.676,-4.544 -75.121,-4.486 -76.95,-4.235C-69.798,-7.586 -62.577,-3.022 -62.577,-3.022C-62.577,-3.282 -62.654,-3.513 -62.798,-3.725C-62.885,-3.87 -63.001,-3.995 -63.136,-4.12C-63.222,-4.197 -63.318,-4.274 -63.424,-4.351C-64.676,-5.227 -66.852,-5.574 -66.852,-5.574C-59.053,-7.23 -53.951,-0.182 -53.951,-0.182C-53.951,-2.204 -56.204,-5.198 -56.204,-5.198C-51.785,-4.38 -46.163,3.043 -46.163,3.043C-46.163,1.011 -47.559,-2.772 -47.645,-3.013C-40.54,0.357 -42.408,5.594 -42.408,5.594C-41.137,5.594 -38.288,2.147 -38.288,2.147C-35.592,4.4 -38.961,10.465 -38.961,10.465C-37.084,10.465 -32.81,7.77 -32.81,7.77C-32.511,9.117 -34.09,12.266 -34.09,12.266C-30.566,10.321 -22.585,11.746 -22.585,11.746C-23.414,12.718 -25.146,13.806 -25.146,13.806C-23.269,13.508 -16.694,16.694 -16.694,16.694C-12.419,17.821 -5.372,28.767 -5.372,28.767C-3.726,30.634 -3.947,35.361 -3.947,35.361C-2.744,36.16 0.385,41.956 1.03,43.159C0.347,42.197 -2.445,41.812 -2.445,41.812C-0.886,42.62 2.58,49.282 3.216,50.524C2.734,49.831 0.943,48.907 0.722,48.791C3.321,50.765 3.851,59.198 3.851,59.198C-2.599,48.926 -14.97,48.406 -14.97,48.406L-15.047,46.606C-14.373,42.553 -17.445,40.233 -17.445,40.233C-18.417,38.885 -22.094,38.885 -22.094,38.885C-26.436,38.134 -28.015,43.756 -28.015,43.756C-36.94,42.331 -39.761,49.003 -39.761,49.003C-41.763,53.355 -37.315,55.001 -37.315,55.001C-35.736,55.078 -35.89,56.426 -35.89,56.426C-37.46,56.878 -39.414,55.675 -39.414,55.675C-42.408,54.78 -44.208,60.402 -44.208,60.402C-45.479,65.87 -44.882,71.271 -44.882,71.271C-45.027,67.815 -41.667,62.462 -41.253,61.817C-42.466,64.185 -41.513,73.899 -41.513,73.899C-39.337,85.818 -31.163,99.161 -31.163,99.161C-28.468,103.214 -23.221,104.264 -23.221,104.264C-17.82,105.082 -10.917,101.789 -10.917,101.789C-8.53,101.01 -6.508,100.201 -4.785,99.392C-2.378,101.077 3.61,101.645 3.61,101.645C3.312,102.059 1.868,102.473 0,102.858M-16.549,43.015C-16.549,43.015 -15.028,43.891 -16.954,46.452L-16.954,44.449C-16.954,44.449 -15.991,43.968 -16.549,43.015M-24.79,42.428C-24.79,42.428 -24.472,40.685 -22.143,40.368C-22.143,40.368 -19.986,40.31 -19.043,41.388C-19.303,41.33 -22.268,40.676 -22.797,41.282C-22.797,41.282 -24.058,41.966 -23.914,43.005C-23.914,43.005 -25.031,43.054 -24.79,42.428M-23.77,44.055C-23.77,44.055 -21.334,42.37 -19.033,42.437C-19.033,42.437 -18.908,46.115 -20.4,46.924C-20.4,46.924 -22.085,47.983 -25.272,46.924C-25.272,46.924 -25.146,44.989 -23.77,44.055M-37.806,49.35C-35.476,46.558 -30.441,47.963 -30.441,47.963C-27.89,48.32 -27.264,50.726 -27.264,50.726C-29.325,51.66 -35.062,51.044 -35.062,51.044C-36.429,51.044 -37.806,49.35 -37.806,49.35M-35.833,52.854L-37.806,52.854C-39.53,52.055 -38.961,50.534 -38.961,50.534C-38.153,52.055 -37.758,51.497 -37.806,52.055C-37.854,52.613 -35.833,52.854 -35.833,52.854M4.631,77.269C3.601,75.305 0.183,75.825 0.183,75.825C1.04,75.902 2.128,76.98 3.196,78.376L3.206,78.386C3.504,79.406 3.851,80.85 3.976,82.256C4.043,83.064 3.976,83.931 3.832,84.634C3.033,83.738 2.195,83.344 2.195,83.344C0.173,81.62 -0.655,84.47 -0.655,84.47L-3.427,87.618C-5.151,87.243 -8.443,87.839 -8.443,87.839C-10.32,87.839 -15.269,92.037 -15.269,92.037C-18.571,94.213 -21.488,95.041 -21.488,95.041C-24.492,94.665 -22.768,92.711 -22.768,92.711C-21.045,92.865 -18.715,92.268 -18.715,92.268C-16.674,90.054 -18.581,90.16 -19.63,90.343C-19.591,90.362 -19.553,90.381 -19.514,90.4C-19.514,90.4 -22.239,91.97 -23.298,90.824C-23.298,90.824 -23.799,89.659 -24.184,88.138C-25.435,90.545 -26.966,89.861 -26.966,89.861C-28.911,91.219 -27.64,92.489 -27.64,92.489C-26.59,92.489 -26.513,94.136 -26.513,94.136C-26.513,95.484 -24.819,97.63 -24.819,97.63C-22.239,99.074 -17.175,95.975 -17.175,95.975C-9.117,89.572 -6.633,90.294 -6.633,90.294C-2.503,90.083 -0.231,87.811 -0.231,87.811C4.005,82.544 2.455,88.119 2.455,88.119C1.011,92.672 -4.467,93.077 -4.467,93.077C-8.289,93.183 -13.969,97.111 -13.969,97.111C-18.099,100.624 -21.931,100.624 -21.931,100.624C-27.717,101.241 -33.503,91.43 -33.503,91.43C-38.461,84.297 -37.835,68.903 -37.835,68.903C-35.833,60.161 -18.465,54.991 -9.329,54.067C-6.219,53.759 -4.149,54.847 -4.149,54.847C2.599,57.417 4.737,68.96 4.737,69.403C4.303,67.873 2.359,68.287 2.359,68.287C4.525,70.241 4.631,77.269 4.631,77.269M10.956,99.565C6.171,101.125 -1.011,99.748 -4.063,99.046C3.812,95.137 4.746,91.363 4.746,91.363C5.786,88.465 5.17,86.472 4.284,85.192C4.746,84.72 5.151,84.037 4.852,83.247C5.285,83.969 6.826,86.675 6.643,90.4C6.643,90.4 7.317,87.464 7.23,84.518L7.23,84.508C8.068,80.715 7.355,70.356 7.153,67.613C7.105,68.922 6.287,70.559 6.287,70.559C6.489,67.141 5.555,61.981 5.555,61.981C6.287,58.255 5.151,47.405 5.151,47.405C5.151,43.997 0.183,36.873 0.183,36.873C-1.463,34.081 -3.013,30.567 -3.013,30.567C-11.697,11.351 -21.103,12.275 -21.103,12.275C-20.997,11.245 -18.205,10.523 -18.205,10.523C-21.931,8.761 -30.085,9.483 -30.085,9.483C-31.231,7.009 -30.085,4.939 -30.085,4.939C-30.817,3.803 -34.533,4.323 -34.533,4.323C-34.119,3.081 -35.563,1.117 -35.563,1.117L-39.491,0.703C-46.211,-7.461 -54.577,-7.355 -54.577,-7.355C-57.475,-8.597 -59.852,-7.875 -59.852,-7.875C-79.685,-11.389 -87.155,1.926 -87.155,1.926C-86.597,1.743 -85.22,1.108 -83.998,0.53C-84.826,1.859 -85.307,2.985 -85.365,3.12C-84.065,2.176 -82.111,1.416 -80.397,0.877C-83.006,2.196 -85.904,4.179 -88.513,7.134C-88.311,7.028 -85.076,5.295 -83.382,5.295C-83.382,5.295 -93.557,16.396 -94.482,20.911C-94.482,20.911 -92.123,18.658 -89.967,18.86C-89.967,18.86 -94.28,28.622 -93.461,36.43C-93.461,36.43 -93.047,33.763 -91.295,33.349C-91.295,33.349 -92.537,43.217 -90.477,47.222C-90.477,47.222 -90.583,44.141 -89.755,43.833C-89.755,43.833 -87.463,58.929 -80.339,67.516C-79.733,69.095 -79.107,71.579 -78.963,75.276C-78.963,75.276 -77.798,72.436 -78.414,71.329C-78.077,71.916 -75.015,77.404 -75.901,83.401C-75.901,83.401 -74.159,82.564 -73.437,81.254C-72.984,84.566 -72.358,87.647 -71.511,88.918C-71.511,88.918 -71.579,84.547 -70.529,84.094C-70.529,84.094 -68.584,92.239 -64.58,94.8C-64.58,94.8 -58.312,100.827 -58.168,105.053C-58.168,105.053 -56.502,99.017 -58.168,96.61C-58.168,96.61 -46.018,109.424 -39.048,111.08C-39.048,111.08 -43.688,108.663 -44.218,103.84C-44.218,103.84 -33.137,111.08 -28.015,111.08C-28.015,111.08 -33.705,107.518 -33.801,104.398C-33.801,104.398 -18.638,114.247 -7.644,109.27C-7.644,109.27 -14.441,109.568 -17.011,108.817C-17.011,108.817 4.544,106.709 5.757,103.542C5.757,103.542 5.208,103.599 4.438,103.609C7.596,102.03 10.715,99.748 10.956,99.565" style="fill:rgb(241,242,242);fill-rule:nonzero;"/>
                </g>
            </g>
            <g transform="matrix(1.244613,0,0,1.244613,-353.186303,-245.10057)">
                <g transform="matrix(100,0,0,100,1074.842575,461.365902)">
                </g>
                <text x="552.743px" y="461.366px" style="font-family:'Rowdies-Regular', 'Rowdies';font-size:100px;fill:rgb(240,240,240);">GORILLAZ</text>
            </g>
            <g transform="matrix(0.86835,0,0,0.86835,-49.915287,3.519759)">
                <g transform="matrix(100,0,0,100,1189.942575,461.365902)">
                </g>
                <text x="552.743px" y="461.366px" style="font-family:'Rowdies-Regular', 'Rowdies';font-size:100px;fill:rgb(240,240,240);">T<tspan x="608.643px 679.543px 742.043px 803.143px " y="461.366px 461.366px 461.366px 461.366px ">ATTO</tspan>O ART</text>
            </g>
        </g>
    </g>
</svg>
